<svg xmlns="http://www.w3.org/2000/svg" width="200" height="200"><g fill="none" fill-rule="evenodd"><rect width="199" height="199" x=".5" y=".5" stroke="#E8E9EB" rx="4"/><path fill="#595959" fill-rule="nonzero" d="M99.993 48C128.719 48 152 71.283 152 100c0 28.718-23.28 52-52.007 52C71.281 152 48 128.718 48 100c0-28.717 23.28-52 51.993-52zm0 4.017c-26.498 0-47.973 21.48-47.973 47.983 0 26.5 21.475 47.983 47.973 47.983 26.505 0 47.987-21.483 47.987-47.983 0-26.503-21.482-47.983-47.987-47.983zm11.573 12.35c.997-.186 2.149-.215 2.775-.09 1.726.337 2.748 1.292 2.907 1.45l.021.021c1.667.187 2.436.344 3.387.889.875.506 1.49 1.772 1.3 2.69-1.089-.57-2.284-1.018-3.478-.46 0 0 1.386.842 2.275 1.052.448.11 1.762.272 2.321-.167 1.065-.842.344-2.055.344-2.055 1.443.86 1.008 3.02-.946 3.33-2.356.383-3.95-.635-5.055-1.017.435.172.942.87 1.056 1.237 0 0-.482-.784-3.597.115-.463.134-1.28.233-1.739.354-1.687.439-2.565 1.638-2.403 2.999-.373-.377-.563-.917-.563-.917s-.526.922-.014 2.59c-.416-.206-.755-.793-.755-.793-.187.215-.43 1.237-.483 2.13-.072 1.32.034 2.203.234 3.507.33 2.155 1.404 3.98 2.904 5.537.664.688 1.496 1.123 2.47 1.008 1.592-.181 2.905-.94 4.018-2.055.621-.62.817-1.313.344-2.115-.062-.106-.1-.225-.149-.344-1.39-3.378-.223-6.369 2.15-8.142 1.74-1.29 3.746-1.394 5.795-1.155 1.553.186 2.924.883 4.338 1.476.794.334 1.62.597 2.436.864.273.09.579.096.855.177.521.157.674.502.488 1.004-.033.085-.086.162-.134.257.822.378 1.735 1.471 2.16 2.122 1.29 1.973 2.02 5.15 2.078 6.01a2.838 2.838 0 01-.387-.014c1.089 1.361 1.696 5.833 2.097 7.84.115.597.234 1.19.368 1.843-.383-.038-.65-.08-.999-.204.115.324.88 1.762.569 5.627-.215 2.785.378 4.578.592 5.026-.372 0-.878-.138-1.18-.397.445.722.922 2.714.941 4.3.02 1.806-.105 4.137-.023 5.762.128 2.466.993 2.977 1.538 3.373-.683.178-1.572.059-2.198-.414-.464-.35-.736-.364-1.342-.378-1.037-.02-1.853-.497-2.614-1.166a1.91 1.91 0 00-1.04-.444c-1.11-.096-1.606-.526-2.36-1.31-.13-.129-.35-.2-.526-.244-4.18-.969-4.19-5.336-4.27-6.668-.608-.08-1.353-.783-1.692-1.31-.062-.095-.182-.223-.335-.175-1.7.525-2.828-2.337-3.19-3.33a12.07 12.07 0 01-.64-2.758l-.001.002-.008.062c-.13.753-1.41 1.919-2.612.086l-.103-.164c.005 3.094-2.39 2.55-2.976.506-.622 3.746-3.278 1.973-3.25-.831v.027l-.004.213c-.12 3.924-2.523 3.407-2.493 2.193l.004-.073c-.157.615-.845 1.36-.845 1.36 6.124 1.104 4.371 4.286 7.06 5.883-.936.324-1.777-.202-1.614.047a6.699 6.699 0 011.09 2.89s3.162 3.087 4.418 4.237c.483.44 1.013.83 1.534 1.227.148.117.363.244.573.346.039-.163.047-.311.062-.392.248-1.018.525-2.026 1.16-2.887.875-1.17 2.15-1.466 3.392-.688.488.31.951.416 1.505.416.97.005 1.801.911 1.778 1.872-.731-.496-1.572-.248-1.911.144 1.547.306 2.37 1.72 1.915 2.608a1.154 1.154 0 00-.453-.482c-.66-.362-1.238-.147-1.386.215-.32.807-1.003 1.047-1.758 1.138-1.352.157-2.68.243-4.08.42-1.91.248-1.848 1.542-2.216 2.44a1.652 1.652 0 01-1.52 1.014c-.329 0-.63-.1-.888-.263-.162.52-.01 1.103.559 1.219-.463.171-1.366-.138-1.663-.765-.54-1.132-.3-2.036.65-2.852l.248-.201c.044-.037.086-.075.14-.109.257-.21.524-.425.764-.664.415-.402.496-.88.185-1.367-.28-.443-.61-.884-1.007-1.213-1.147-.975-2.337-1.9-3.526-2.828a8.877 8.877 0 00-1.156-.746c-.325-.176-.783-.277-1.194-.128-.918.328-1.448-.088-1.673-.26-.133-.099-1.404-1.36-5.22-1.887.539.34.773.871.993 1.41.186.464.372.927.568 1.391 2.146 5.065 4.266 10.048 6.411 15.116.702 1.673.076 3.144-1.658 3.952-1.265.588-2.693.277-3.544-.946v.001l.059.206c.187.68.262 1.29.04 1.873l-.075.174a3.101 3.101 0 01-1.595 1.505c-.693.301-1.515.411-2.27.259-.764-.158-1.27-.66-1.658-1.405-.066 1.657-1.094 2.636-2.517 2.828v.029a3.95 3.95 0 01-.34.015c-.033 0-.071-.006-.11-.006-.038 0-.07.006-.104.006-.115 0-.23-.006-.34-.015v-.029c-1.424-.191-2.45-1.17-2.522-2.828-.382.746-.889 1.247-1.658 1.405-.75.152-1.576.042-2.274-.259-.698-.305-1.246-.803-1.585-1.505-.34-.692-.23-1.418.019-2.254l-.002.001-.117.16c-.812 1.036-2.084 1.32-3.248.86l-.174-.075c-1.734-.808-2.359-2.28-1.657-3.952 2.14-5.069 4.261-10.052 6.41-15.116.197-.464.373-.927.565-1.39.224-.54.459-1.07.993-1.41-3.817.526-5.088 1.787-5.221 1.887-.22.172-.75.587-1.672.259-.411-.149-.865-.048-1.194.128a8.836 8.836 0 00-1.157.746c-1.185.927-2.374 1.854-3.52 2.828-.397.33-.727.77-1.013 1.213-.302.488-.225.965.19 1.367a9.732 9.732 0 00.903.773l.244.2c.956.818 1.19 1.72.65 2.853-.3.627-1.195.936-1.667.765.578-.116.73-.699.563-1.22a1.667 1.667 0 01-.888.264 1.64 1.64 0 01-1.515-1.013c-.367-.898-.31-2.193-2.226-2.44-1.39-.178-2.714-.264-4.07-.421-.76-.091-1.433-.33-1.758-1.138-.144-.362-.73-.577-1.385-.215a1.2 1.2 0 00-.459.482c-.449-.888.368-2.302 1.92-2.608-.334-.392-1.18-.64-1.915-.144-.024-.96.808-1.867 1.782-1.872.554 0 1.017-.105 1.51-.416 1.231-.777 2.512-.482 3.381.688.641.86.918 1.87 1.157 2.887.019.08.033.228.071.392.21-.102.42-.23.574-.346.525-.396 1.05-.787 1.528-1.227 1.257-1.15 4.42-4.237 4.42-4.237.152-1.022.434-1.887 1.093-2.89.162-.248-.678.277-1.615-.047 2.685-1.597.937-4.78 7.052-5.882 0 0-.683-.745-.832-1.361.12 1.29-2.474 1.906-2.493-2.36v.027l-.001.122c-.073 2.667-2.554 4.3-3.222.878l-.036-.196c-.582 2.045-2.975 2.59-2.975-.506-1.262 2.121-2.656.784-2.719.014v.002l-.05.392c-.096.662-.26 1.353-.463 1.989l-.127.374c-.368.994-1.49 3.856-3.19 3.33-.154-.048-.278.08-.33.176-.34.527-1.085 1.23-1.702 1.31-.076 1.332-.09 5.7-4.27 6.668-.172.044-.397.115-.52.244-.756.784-1.253 1.214-2.366 1.31a1.92 1.92 0 00-1.041.444c-.755.669-1.576 1.147-2.604 1.166-.616.014-.884.028-1.352.378-.626.472-1.514.591-2.197.414.554-.396 1.409-.908 1.538-3.373.09-1.625-.038-3.956-.019-5.762.02-1.586.492-3.578.94-4.3-.3.259-.801.397-1.184.397.22-.449.812-2.24.588-5.026-.301-3.865.468-5.303.583-5.627a3.95 3.95 0 01-1.003.204c.128-.654.243-1.246.367-1.844.402-2.006 1.009-6.478 2.093-7.84 0 0-.22.024-.387.015.057-.86.788-4.037 2.083-6.01.43-.65 1.332-1.744 2.16-2.122-.044-.095-.101-.172-.135-.257-.186-.502-.034-.847.487-1.004.277-.081.579-.086.855-.177.818-.267 1.639-.53 2.432-.864 1.414-.593 2.79-1.29 4.338-1.476 2.054-.239 4.06-.135 5.8 1.155 2.379 1.773 3.54 4.764 2.15 8.142-.049.12-.087.238-.149.344-.473.802-.282 1.495.344 2.115 1.113 1.114 2.432 1.874 4.013 2.055.979.115 1.81-.32 2.47-1.008 1.505-1.557 2.58-3.382 2.914-5.537.196-1.304.3-2.187.23-3.507-.049-.893-.297-1.915-.488-2.13 0 0-.334.587-.75.793.506-1.668-.014-2.59-.014-2.59s-.196.54-.569.917c.163-1.361-.716-2.56-2.403-3-.454-.12-1.275-.22-1.738-.353-3.115-.899-3.603-.115-3.603-.115.124-.368.626-1.065 1.07-1.237-1.108.382-2.704 1.4-5.064 1.017-1.954-.31-2.389-2.47-.94-3.33 0 0-.727 1.213.343 2.055.564.439 1.874.277 2.322.167.8-.19 1.998-.89 2.23-1.027l.04-.024c-1.19-.56-2.385-.11-3.479.458-.186-.917.43-2.183 1.304-2.689.947-.545 1.716-.702 3.387-.889 0 0 1.047-1.103 2.925-1.471.63-.125 1.781-.096 2.78.09 1.581.301 2.278.636 3.76 1.014 1.142.286 3.926.926 6.081-.512.019-.01-.793 1.82-2.857 2.341.569.172 1.648.02 2.46-.396-.372.516-1.065 1.275-2.144 1.624.314.32 1.375.387 1.963.067-.64.769-1.118 1.065-1.815 1.204 2.082 2.322 3.29 5.264 4.113 10.75l-.001-.004.064-.471c.696-5 1.954-7.846 3.873-10.069l.182-.206c-.698-.139-1.175-.435-1.816-1.204.588.32 1.648.253 1.959-.067-1.08-.349-1.772-1.108-2.136-1.624.808.415 1.883.568 2.46.396-2.072-.52-2.875-2.35-2.865-2.34 2.164 1.437 4.944.797 6.086.51 1.486-.377 2.178-.712 3.76-1.013zm-12.383 51.288a.54.54 0 00-.55.492c-.243 3.646-.993 16.357-1.146 19.636 0 .038-.005.076-.005.12-.004.047-.01.094-.01.138-.004.037-.004.07-.004.11-.058 1.476 1.074 2.488 2.532 2.412 1.461.077 2.599-.936 2.527-2.413v-.248l-.014-.119c-.148-3.279-.898-15.99-1.142-19.636a.54.54 0 00-.55-.492.55.55 0 00-.554.545c-.004 3.743-.001 12.44 0 15.93v1.44c0 .125.024.263-.019.37-.052.122-.153.217-.248.323-.086-.105-.196-.2-.244-.324-.043-.106-.02-.244-.02-.368-.003-.865.005-12.805-.003-17.371a.547.547 0 00-.55-.545zm-2.666-.832a.443.443 0 00-.492.368c-.292 1.533-3.32 14.56-4.104 18.91-.243 1.337.368 2.355 1.648 2.808 1.654.588 3.201-.3 3.336-1.953.2-2.543 1.098-15.967 1.265-19.076a.449.449 0 00-.894-.062c-.272 2.125-1.934 13.516-2.264 16.224-.019.153-.019.32-.086.454-.057.12-.196.2-.3.3-.073-.124-.177-.233-.211-.362-.033-.116.01-.254.024-.378.1-.856 2.025-13.024 2.474-16.731a.458.458 0 00-.396-.502zm7.057-.003l-.087.002a.452.452 0 00-.397.502c.45 3.707 2.375 15.876 2.475 16.731.014.124.058.263.024.378-.033.13-.139.239-.215.363-.105-.1-.239-.181-.296-.301-.072-.133-.067-.301-.081-.454-.335-2.708-2.002-14.099-2.27-16.224a.449.449 0 00-.893.063c.162 3.109 1.066 16.533 1.266 19.076.129 1.653 1.686 2.541 3.33 1.953 1.285-.453 1.897-1.47 1.653-2.81-.784-4.348-3.817-17.375-4.099-18.91a.456.456 0 00-.497-.367zm-9.192-1.393a.423.423 0 00-.512.264c-.52 1.384-5.532 12.923-7.055 17.075-.464 1.276-.053 2.375 1.084 3.039 1.48.85 3.124.229 3.535-1.371.645-2.47 3.583-14.778 4.252-17.654a.422.422 0 00-.282-.491.413.413 0 00-.52.29c-.598 1.944-3.956 12.053-4.744 14.672-.049.148-.072.31-.162.43-.072.11-.22.168-.34.248-.053-.134-.124-.258-.139-.396-.01-.115.053-.24.091-.364.248-.826 4.042-11.823 5.059-15.215a.41.41 0 00-.267-.527zm11.32-.014l-.08.015a.42.42 0 00-.277.527c1.028 3.392 4.816 14.389 5.07 15.215.037.124.099.249.085.364-.01.138-.086.262-.139.396-.114-.08-.257-.139-.339-.248-.085-.12-.11-.282-.157-.43-.798-2.619-4.147-12.728-4.749-14.672a.413.413 0 00-.516-.29.421.421 0 00-.281.491c.673 2.876 3.606 15.184 4.247 17.654.415 1.6 2.058 2.221 3.53 1.37 1.15-.664 1.562-1.763 1.093-3.038-1.524-4.153-6.544-15.69-7.055-17.076a.42.42 0 00-.511-.263zM80.67 121.33c-.053.41-.282.784-.655.989a1.25 1.25 0 01-.592.148 1.33 1.33 0 01-.487-.095c.029.08.048.162.071.248.034.11.192.659.21.726a1.371 1.371 0 001.324 1.023c.41 0 .778-.187 1.027-.477.468.906.052 1.404.052 1.404s.42-.143.664-.726c.22-.512.264-1.376-.405-2.185-.268-.318-.626-.554-.95-.82a5.515 5.515 0 01-.259-.235zm38.662.001c-.081.076-.167.158-.262.234-.321.267-.68.502-.946.82-.67.81-.626 1.675-.411 2.185.253.584.668.727.668.727s-.415-.498.048-1.405c.254.29.622.477 1.037.477a1.37 1.37 0 001.319-1.022c.019-.067.18-.616.21-.726.018-.086.043-.168.066-.248a1.265 1.265 0 01-1.08-.053 1.286 1.286 0 01-.649-.989zm-39.914-.952a.885.885 0 00-.883.885.88.88 0 00.883.877c.483 0 .88-.39.88-.877a.884.884 0 00-.88-.885zm41.156 0a.883.883 0 00-.874.885.88.88 0 10.874-.884zm-41.729-.118c-.563.11-.789.263-1.223.777 0 0 .378.068.597.292 0 0-.09-.745.626-1.07zm42.312 0c.716.324.621 1.07.621 1.07.23-.225.597-.293.597-.293-.434-.515-.654-.668-1.218-.777zm-41.676-.25a3.727 3.727 0 00-2.561-.61.437.437 0 00-.139.023.76.76 0 00.196 1.495c.21 0 .392-.085.535-.219.163-.144.78-.769 1.969-.688zm43.601-.61a3.734 3.734 0 00-2.565.61c1.194-.08 1.81.545 1.968.688a.766.766 0 001.304-.54.759.759 0 00-.573-.735.426.426 0 00-.134-.023zm-47.83-.521c-.195 0-.367.41-.367.884 0 .4.133.812.296.84.267.034.526.067.77.091a1.454 1.454 0 01-.158-.664c0-.329.133-.65.42-.802-.081-.029-.316-.087-.406-.125a9.242 9.242 0 01-.555-.224zm49.488 0c-.239.105-.43.186-.545.224-.09.038-.324.096-.406.125.282.152.416.473.416.802 0 .25-.058.478-.157.664.248-.024.506-.057.773-.09.163-.029.297-.44.297-.841 0-.473-.173-.884-.378-.884zm-50.758-.54c-.244.062-.497.487-.497 1.079 0 .512.191.899.406 1.037.234.03.496.058.76.091a1.757 1.757 0 01-.173-.783c0-.45.144-.832.36-1.06-.264-.115-.556-.244-.856-.364zm52.034 0c-.297.12-.588.25-.856.364.215.228.363.611.363 1.06 0 .295-.066.563-.171.783.262-.033.515-.062.764-.091.215-.138.4-.525.4-1.036 0-.592-.252-1.017-.5-1.08zm-53.095-.421c-.386 0-.717.56-.717 1.219 0 .558.234 1.042.536 1.18.157.017.349.043.573.072a2.089 2.089 0 01-.23-.971c0-.54.182-1.003.459-1.265-.22-.086-.425-.162-.62-.235zm54.155 0c-.19.072-.396.149-.611.235.272.263.453.726.453 1.265 0 .374-.09.708-.234.97.22-.028.42-.054.573-.071.302-.138.536-.622.536-1.18 0-.66-.325-1.22-.717-1.22zm1.015-.25l-.136.003c-.08.01-.19.032-.31.066.33.276.55.793.55 1.4 0 .42-.106.793-.274 1.07.521-.157.837-.54 1.038-1.085.2-.531-.11-1.528-1.004-1.451zm-56.049.002c-.893-.076-1.203.92-1.003 1.452.206.545.516.928 1.041 1.085-.171-.278-.272-.65-.272-1.07 0-.608.22-1.124.55-1.401a2.31 2.31 0 00-.316-.066zm8.884-1.626c-.098.153-1.518 2.32-3.552 2.997 0 0 .754-.014 1.523.252.373.13 1.038.15 1.171-.72.12-.798.425-1.715.86-2.532l-.002.003zm38.303.308c.357.734.6 1.523.7 2.221.134.87.803.85 1.18.72a4.91 4.91 0 011.485-.252h.039c-2.116-.702-3.563-3-3.563-3zm-36.802-1.758c-1.92 1.762-2.13 4.74-2.13 4.74a4.84 4.84 0 01.822-.961 2.45 2.45 0 00.578-.837c.067-.159.102-.385.132-.624l.045-.364a6.172 6.172 0 01.537-1.922zm35.147-.002s.416.793.554 1.954c.044.363.072.751.177.99.076.18.253.53.583.836.291.272.55.553.812.96 0 0-.21-2.976-2.126-4.74zm11.385 3.104l-.134.003c.463.19.61.821.535 1.194.482-.144.945-.034 1.247.268-.029-.798-.932-1.524-1.782-1.462zm-57.786.003c-.846-.062-1.749.664-1.778 1.462.301-.302.765-.41 1.252-.268-.086-.373.063-1.004.526-1.194zm53.292-.16l-.045.002c-.306.425-.54.888-.63 1.352.357-.2.75-.41 1.165-.616a.707.707 0 00-.105-.42c-.139-.235-.34-.34-.43-.316zm-48.887.002c-.091-.024-.287.082-.426.315-.1.168-.124.325-.105.42.416.206.807.417 1.166.617-.091-.464-.325-.927-.635-1.352zm.764-.325c-.048.025-.086.043-.129.082a.518.518 0 00-.177.229c-.019.047-.019.09-.005.114.23.397.411.797.583 1.2v-.128a6.9 6.9 0 00-.123-.932l-.015-.074c-.044-.161-.087-.323-.134-.491zm47.323-.001c-.057.169-.1.33-.133.492-.043.179-.159.775-.148 1.133l-.001-.002.135-.3c.09-.2.185-.4.29-.6l.163-.298c.014-.024.014-.067-.005-.114a.522.522 0 00-.177-.229c-.042-.038-.085-.057-.124-.082zm-61.894-12.163c-.31-.024-.473.334-.492 1.195l-.177 5.279c-.01.234-.086.363-.23.353-.147-.01-.19-.169-.195-.344l.043-4.462c0-.841-.186-.985-.45-.813-.687.44-.845 3.87-.787 5.108.12 2.614.367 5.189-.76 7.07 0 0 3.564-.778 3.879-9.587.034-1.056-.023-3.742-.83-3.799zm76.52 0h-.06c-.807.057-.87 2.744-.831 3.799.31 8.81 3.88 9.587 3.88 9.587-1.129-1.882-.885-4.456-.761-7.07.058-1.237-.105-4.668-.793-5.108-.262-.173-.449-.028-.449.813l.044 4.462c-.005.176-.049.334-.192.344-.139.01-.224-.12-.23-.353l-.18-5.279c-.02-.861-.182-1.219-.488-1.195zm-12.988 11.606l-.056.014c-.13.1-.253.215-.368.335-.019.018-.034.037-.048.052-.048.047-.096.1-.138.148.19.076.367.233.506.46.08.142.134.285.147.424.23-.105.46-.205.689-.305a.363.363 0 00.042-.187.914.914 0 00-.162-.511 1.08 1.08 0 00-.396-.382c-.105-.049-.206-.063-.272-.034zm-50.547.013c-.072-.028-.168-.014-.268.034a1.136 1.136 0 00-.406.382.955.955 0 00-.162.512.43.43 0 00.042.186c.23.1.464.2.689.305.019-.138.071-.281.152-.425.13-.225.31-.382.502-.459-.043-.048-.086-.1-.134-.148a4.691 4.691 0 00-.415-.387zm8.828-3.21c-.865.937-1.352 2.222-1.419 3.12-.071.878-.277 1.195-.277 1.195l.001-.002.85-.802s.355-.323.541-.654l.05-.1c.12-.263.164-.626.144-.84-.153-1.493.11-1.917.11-1.917zm32.836.003l.012.025c.055.115.236.609.101 1.888-.024.215.02.578.138.84.163.364.593.754.593.754l.853.802c-.023-.04-.183-.327-.263-1.024l-.017-.168c-.071-.898-.554-2.183-1.42-3.12l.003.003zm9.755 2.63l-.073.013a.453.453 0 00-.072.034c-.005 0-.005.004-.01.01-.11.056-.22.118-.33.19-.004.005-.004.015-.009.019a1.418 1.418 0 01.578.531c.143.23.23.488.22.717.215-.081.425-.158.64-.224.071-.096.067-.23.053-.311-.019-.193-.125-.402-.273-.579a1.167 1.167 0 00-.52-.372.485.485 0 00-.277-.015zm-52.28.014a.467.467 0 00-.272.015c-.176.056-.372.19-.52.372a1.133 1.133 0 00-.277.578.439.439 0 00.052.311c.215.067.435.144.645.225-.004-.23.072-.488.215-.717a1.506 1.506 0 01.578-.531.044.044 0 00-.01-.019 2.763 2.763 0 00-.324-.19c0-.006-.01-.01-.01-.01a.366.366 0 00-.076-.034zm62.287-9.798c-.263-.115-.54.005-.502.831l.234 4.534c.019.162.005.31-.124.34-.124.024-.215-.082-.263-.288l-.459-4.257c-.028-.846-.281-.978-.554-.923-.72.178-.664 2.772-.506 3.723 1.213 7.128 5.102 7.28 5.102 7.28-1.295-1.532-1.777-4.127-2.102-6.559-.148-1.117-.143-4.386-.826-4.681zm-71.86.831c.038-.826-.234-.946-.501-.831-.679.295-.679 3.564-.832 4.681-.325 2.432-.802 5.026-2.097 6.56 0 0 3.889-.153 5.097-7.281.163-.951.22-3.545-.501-3.723-.273-.055-.525.078-.55.923l-.463 4.257c-.048.207-.138.312-.267.287-.13-.028-.14-.177-.12-.339zm11.604 9.128c-.024 0-.048 0-.072.01a.566.566 0 00-.282.15.557.557 0 00-.171.266c-.01.033-.01.062-.01.086.153.162.291.335.42.517a.733.733 0 01.206-.24.815.815 0 01.22-.133 6.26 6.26 0 00-.31-.656zm48.155 0a5.575 5.575 0 00-.316.655.868.868 0 01.215.134.903.903 0 01.215.24c.125-.183.263-.355.416-.518 0-.024 0-.052-.014-.085a.557.557 0 00-.172-.267.525.525 0 00-.278-.149c-.023-.01-.047-.01-.066-.01zm-51.265-.459c-.583-.014-1.323.306-1.433 1.22.334.043.683.119 1.036.214a.925.925 0 01.01-.224 1.57 1.57 0 01.368-.784c.129-.153.286-.281.444-.373a2.319 2.319 0 00-.425-.053zm54.365 0c-.134.006-.277.02-.42.053.162.091.31.22.444.373.2.24.33.517.363.784a.857.857 0 01.01.224 8.295 8.295 0 011.041-.215c-.114-.913-.855-1.233-1.438-1.219zm3.282.819c-.172-.655-.94-1.348-2.537-.975.847.22.946.875 1.009 1.2.196-.254.946-.507 1.528-.225zm-58.387-.975c-1.59-.373-2.37.32-2.532.975.578-.282 1.323-.029 1.524.225.061-.326.162-.98 1.008-1.2zm52.726-.27l-.043.007a3.193 3.193 0 00-.482.568 1 1 0 01.377.225c.105.095.191.21.239.325.12-.11.258-.215.401-.311a.246.246 0 00.039-.148.784.784 0 00-.134-.373.73.73 0 00-.291-.263c-.058-.028-.11-.037-.149-.023zm-49.563.007c-.034-.014-.087-.005-.144.023a.755.755 0 00-.42.636c-.005.066.004.115.028.148.143.096.282.2.41.311a.924.924 0 01.23-.325c.12-.105.253-.186.383-.225a3.42 3.42 0 00-.487-.568zm39.841-4.877s.492 1.328-.004 3c-.082.29-.153.774-.12 1.08.03.295.22.659.42.827.488.406.97.83.97.83l-.001-.001c-.036-.058-.23-.397-.181-.977l.02-.164c.186-1.213-.115-3.081-1.104-4.595zm-30.165.002l-.164.268c-.848 1.461-1.113 3.183-.937 4.324.114.737-.158 1.143-.158 1.143s.472-.425.97-.831c.2-.168.391-.531.42-.827.033-.305-.038-.788-.124-1.08-.493-1.672-.005-3-.005-3l-.002.003zm-16.943-2.554c.162-.65-.134-.765-.344-.685-.564.198-1.06 2.644-1.242 3.523-.41 1.977-1.194 4.205-2.308 5.35 0 0 3.378-.158 4.73-5.756.182-.746.64-2.733.081-2.904-.22-.068-.392.157-.544.764l-.927 3.51c-.048.169-.125.24-.23.216-.1-.033-.1-.153-.076-.277zm64.407-.685c-.22-.08-.511.034-.354.685l.865 3.741c.03.124.019.244-.08.277-.101.024-.182-.047-.225-.215l-.923-3.51c-.158-.608-.339-.833-.549-.765-.559.171-.1 2.158.081 2.904 1.352 5.598 4.73 5.757 4.73 5.757-1.109-1.147-1.897-3.374-2.313-5.351-.181-.88-.674-3.325-1.232-3.523zm-6.464 7.493a1.74 1.74 0 00-.659.235c-.034.018-.067.047-.1.066a1.243 1.243 0 01.582.855c.177-.11.378-.22.588-.315a.278.278 0 00.034-.12.716.716 0 00-.087-.387c-.105-.204-.252-.314-.358-.334zm-51.828 0c-.105.02-.253.13-.359.334a.772.772 0 00-.09.388.23.23 0 00.043.119c.21.096.401.206.582.315a1.233 1.233 0 01.583-.855c-.033-.02-.066-.048-.1-.066a1.732 1.732 0 00-.659-.235zm-.635 0c-.507.06-.97.282-1.19.592a2.46 2.46 0 01.96.08 1.132 1.132 0 01.23-.673zm53.104 0a1.194 1.194 0 01.224.674 2.44 2.44 0 01.96-.082c-.224-.31-.687-.531-1.184-.593zm-25.798-5.323c-.253-.123-.448-.032-.497.536l-.152 1.749c-.015.123-.01.291-.154.291-.143 0-.133-.167-.157-.291l-.148-1.749c-.053-.568-.244-.659-.497-.536-.664.326-.865 1.75-.865 2.17 0 1.194.789 3.162 1.667 3.664.88-.5 1.668-2.47 1.668-3.664 0-.42-.205-1.844-.865-2.17zm13.65 4.396c-.187-.33-.904-.272-1.559.377 0 0 .478-.062 1.07.21.588.277.674-.252.488-.587zm-27.255.377c-.655-.65-1.376-.706-1.558-.377-.186.335-.1.864.487.588.588-.274 1.071-.212 1.071-.21zm42.665-5.971c-.172-.048-.406.048-.272.52l.789 2.934c.018.091.018.181-.058.205-.08.024-.139-.028-.177-.148l-.836-2.757c-.133-.449-.272-.606-.44-.55-.434.149-.051 1.606.092 2.15.916 3.603 3.426 3.815 3.652 3.827h.017c-.874-.81-1.439-2.154-1.768-3.607-.154-.65-.56-2.45-.999-2.574zm-59.367.52c.134-.472-.095-.568-.267-.52-.435.124-.846 1.925-.994 2.574-.339 1.453-.898 2.796-1.777 3.608 0 0 2.709-.052 3.674-3.827.143-.545.52-2.002.086-2.15-.168-.057-.306.1-.43.55l-.841 2.756c-.038.12-.1.172-.177.148-.076-.024-.08-.114-.062-.205zm17.866 2.841l-.05.002c-.37.043-.646.77-.708 1.06-.153.665-.015 1.547.535 1.682.544.134 1.027-.606 1.18-1.285.057-.262.138-1.07-.177-1.267-.12-.075-.23-.066-.301.135l-.32 1.051c-.024.043-.034.105-.105.086-.076-.015-.058-.078-.058-.124l.163-1.085c.023-.21-.067-.268-.21-.253zm23.415.002c-.144-.014-.234.043-.21.253l.167 1.085c0 .047.019.109-.058.124-.07.02-.086-.043-.105-.086l-.32-1.051c-.077-.202-.182-.211-.3-.135-.312.197-.24 1.005-.173 1.267.153.679.626 1.419 1.175 1.285.55-.135.688-1.017.536-1.681-.072-.291-.345-1.018-.712-1.06zm-7.606-1.806c-.63-.004-1.247.74-1.447 1.09-.564.988-.65 2.469-.249 3.259.88-.063 1.911-.545 2.475-1.529.191-.354.717-1.616.392-2.15-.134-.215-.316-.22-.616.234l-.937 1.386c-.067.09-.139.233-.244.17-.105-.056-.019-.194.024-.3l.712-1.51c.23-.492.13-.65-.11-.65zm-8.25 0c-.243 0-.344.157-.11.65l.708 1.51c.047.105.128.243.023.298-.1.063-.177-.08-.244-.17l-.936-1.387c-.3-.453-.487-.448-.612-.233-.324.534.196 1.796.397 2.15.56.983 1.59 1.466 2.47 1.529.396-.79.31-2.27-.249-3.259-.205-.347-.816-1.093-1.447-1.089zm-9.736.741c-.01-.24-.138-.287-.32-.248-.454.1-.66.969-.688 1.313-.058.779.291 1.758 1.013 1.825.725.067 1.184-.845 1.246-1.643.025-.306-.038-1.238-.472-1.409-.173-.067-.306-.037-.359.195l-.205 1.248c-.014.053-.014.125-.11.114-.1-.01-.086-.077-.096-.129zm28.032-.25c-.176-.037-.3.01-.319.25v1.265c-.01.053 0 .12-.096.13-.095.01-.095-.062-.114-.115l-.206-1.247c-.048-.234-.182-.263-.354-.196-.434.172-.501 1.104-.477 1.41.067.798.525 1.71 1.247 1.643.722-.067 1.074-1.046 1.017-1.826-.028-.344-.234-1.213-.698-1.313zm-23.761.225c-.029-.206-.153-.238-.316-.19-.415.11-.544.855-.544 1.141 0 .655.396 1.452 1.065 1.467.669.01 1.032-.788 1.037-1.458 0-.258-.13-1.036-.545-1.15-.158-.044-.277-.015-.31.19l-.105 1.056c-.005.042 0 .1-.096.1-.09 0-.085-.061-.09-.1zm19.49-.19c-.156-.047-.281-.014-.31.19l-.09 1.057c-.015.038-.01.1-.1.1-.091 0-.086-.058-.1-.1l-.096-1.057c-.034-.205-.154-.234-.316-.19-.41.115-.54.892-.535 1.151 0 .669.358 1.467 1.032 1.457.674-.014 1.065-.812 1.061-1.466 0-.287-.13-1.032-.545-1.142zm-2.497-.845c-.139-.04-.24 0-.254.205v1.093c-.001.037-.01.078-.072.082-.046.003-.064-.017-.074-.041l-.016-.05-.163-1.056c-.047-.2-.153-.224-.286-.167-.344.142-.392.926-.373 1.184.057.669.42 1.444.999 1.391.568-.057.845-.878.792-1.533-.023-.288-.185-1.024-.553-1.108zm-14.557.204c-.01-.205-.114-.244-.253-.205-.363.085-.53.82-.55 1.108-.057.656.22 1.477.794 1.534.573.053.945-.723.998-1.39.02-.258-.024-1.043-.372-1.186-.135-.057-.244-.033-.287.168l-.168 1.055c-.01.039-.01.096-.09.09-.077-.003-.062-.065-.072-.108zm-4.376-1.557c.005-.258-.129-.32-.32-.286-.492.075-.764.984-.817 1.347-.12.817.187 1.876.946 1.997.755.12 1.31-.817 1.429-1.662.047-.315.042-1.305-.406-1.52-.178-.08-.32-.062-.387.185l-.301 1.306c-.025.052-.025.13-.135.114-.1-.014-.08-.085-.09-.143zm23.38-.286c-.191-.034-.325.028-.325.286l.082 1.338c0 .058.014.128-.091.143-.1.015-.106-.062-.124-.114l-.306-1.306c-.067-.247-.215-.266-.382-.185-.455.215-.46 1.204-.411 1.52.12.846.668 1.781 1.428 1.662.755-.12 1.065-1.18.95-1.997-.052-.363-.325-1.272-.82-1.347zm-2.695-.22c-.147-.03-.248.009-.262.191l-.01.936c-.004.039 0 .09-.071.096-.086.01-.086-.044-.091-.082l-.162-.927c-.044-.176-.149-.195-.287-.143-.349.129-.406.822-.387 1.046.043.598.415 1.272.994 1.219.582-.054.874-.784.826-1.357-.02-.259-.181-.903-.55-.98zm-18.25-.008l-.06.007c-.368.078-.531.721-.55.98-.043.574.239 1.304.827 1.357.582.053.946-.62.993-1.219.02-.224-.038-.917-.382-1.046-.139-.053-.253-.033-.291.143l-.158.927c-.015.038-.015.091-.091.082-.048-.003-.063-.023-.069-.047l-.007-.049-.01-.936c-.019-.182-.114-.22-.263-.192zm23.343-.254c-.143-.03-.248.008-.258.204v1.032c-.01.039 0 .095-.081.106-.081.005-.081-.058-.085-.096l-.168-1.013c-.043-.197-.153-.22-.291-.162-.354.138-.407.898-.382 1.147.052.65.425 1.394 1.007 1.342.584-.052.865-.855.822-1.486-.023-.282-.192-.989-.564-1.074zm-28.442-.01l-.06.009c-.371.086-.534.792-.558 1.074-.047.632.234 1.435.822 1.485.588.052.956-.692 1.008-1.342.024-.248-.029-1.008-.383-1.146-.138-.057-.248-.035-.29.162l-.163 1.014c-.015.038-.015.1-.091.095-.08-.01-.072-.067-.076-.106l-.01-1.031c-.01-.196-.114-.234-.258-.205zm-.976 2.062c-.029-.244-.277-.492-.483-.12-.2.37-.482.517-.482.517.587.095.993-.147.965-.397zm30.818-.12c-.205-.37-.449-.124-.478.12-.023.25.368.492.965.397 0 0-.272-.147-.487-.517zm-22.888-5.015c-.268-.018-.359.159-.057.751l.908 1.82c.057.13.158.291.052.358-.105.063-.2-.11-.282-.224l-1.142-1.687c-.367-.55-.568-.555-.678-.317-.315.618.277 1.965.52 2.395.698 1.19 2.065 2.174 3.02 2.295.363-.889.181-2.566-.516-3.756-.249-.425-1.137-1.6-1.825-1.635zm14.533-.002l-.053.001c-.688.034-1.572 1.21-1.825 1.635-.698 1.19-.879 2.867-.516 3.756.956-.12 2.317-1.104 3.015-2.295.248-.43.835-1.777.53-2.395-.12-.238-.315-.233-.684.317l-1.141 1.686c-.081.115-.172.287-.282.225-.11-.067 0-.23.058-.36l.902-1.818c.297-.592.2-.769-.057-.751zm-4.955 1.043c.044-.572-.124-.682-.386-.596-.67.225-1.066 1.6-1.128 2.016-.172 1.178.425 2.255 1.18 2.876.898-.377 1.787-1.232 1.954-2.408.067-.415.081-1.848-.487-2.26-.23-.157-.42-.1-.55.454l-.396 1.71c-.038.115-.053.282-.191.263-.139-.024-.106-.186-.1-.306zm-4.294-.596c-.258-.087-.42.024-.387.596l.11 1.75c0 .12.033.281-.106.305-.128.02-.152-.148-.181-.262l-.401-1.71c-.13-.555-.325-.612-.545-.454-.578.41-.559 1.844-.497 2.26.177 1.174 1.056 2.03 1.959 2.407.75-.621 1.352-1.698 1.175-2.876-.057-.416-.454-1.791-1.127-2.016zm-8.256.3c-.013-.233-.129-.282-.29-.238-.416.094-.607.94-.631 1.27-.063.75.253 1.692.908 1.754.66.062 1.079-.821 1.141-1.591.025-.297-.033-1.195-.43-1.358-.148-.062-.277-.036-.32.197l-.19 1.2c-.015.047-.02.114-.102.11-.09-.006-.08-.078-.086-.125zm20.71-.238c-.162-.044-.277.005-.291.238v1.22c-.005.047.01.118-.077.123-.096.005-.096-.062-.11-.11l-.191-1.199c-.043-.234-.167-.259-.32-.197-.396.163-.45 1.062-.425 1.358.057.77.478 1.653 1.137 1.59.654-.061.97-1.003.913-1.752-.025-.33-.22-1.176-.636-1.271zm-23.176.646l-.056.008c-.353.072-.506.712-.525.965-.048.57.225 1.296.779 1.343.544.053.898-.615.945-1.205.014-.224-.033-.906-.368-1.035-.128-.049-.229-.029-.272.147l-.153.913c-.01.033-.01.091-.08.081-.077-.005-.068-.057-.072-.09l-.01-.933c-.01-.175-.11-.215-.244-.186zm25.417.007c-.139-.029-.24.01-.249.186l-.005.933c-.009.033 0 .085-.076.09-.072.01-.072-.047-.086-.08l-.153-.914c-.033-.175-.143-.195-.267-.147-.34.13-.387.812-.368 1.035.048.59.396 1.258.946 1.205.554-.047.816-.774.778-1.342-.019-.253-.171-.893-.52-.966zm-38.328-5.822c-.13-.153-.273-.096-.416.434l-.797 3.206c-.034.11-.067.267-.158.248-.086-.02-.053-.177-.034-.287l.31-2.159c.087-.535-.014-.65-.2-.568-.478.215-.894 1.734-1.056 2.494-.367 1.696-.32 3.892.124 4.48.656-.347 1.591-2.282 1.959-4.036.144-.664.616-3.426.268-3.812zm51.594.434c-.139-.53-.282-.587-.416-.434-.348.386.12 3.148.264 3.812.377 1.754 1.308 3.688 1.958 4.037.45-.589.492-2.785.124-4.481-.162-.76-.573-2.28-1.05-2.494-.183-.082-.288.033-.206.568l.315 2.16c.014.11.052.267-.038.286-.09.02-.115-.138-.153-.248zm-55.459-.721c.062-.626-.067-.75-.292-.645-.573.268-1.103 2.494-1.25 3.378-.33 1.982-.116 4.529.481 5.193.779-.44 1.792-2.723 2.126-4.763.13-.78.363-3.163-.095-3.598-.181-.171-.344-.1-.487.513l-.65 3.138c-.03.129-.053.315-.163.295-.114-.018-.081-.2-.072-.334zm59.2-.646c-.225-.105-.363.02-.296.645l.4 3.177c.015.135.049.316-.061.334-.115.021-.134-.165-.172-.295l-.65-3.138c-.139-.612-.306-.684-.488-.512-.458.435-.224 2.818-.09 3.597.34 2.04 1.347 4.322 2.126 4.763.597-.664.807-3.21.482-5.193-.153-.884-.678-3.11-1.252-3.378zm-62.119-.391c.09-.645-.048-.783-.296-.692-.635.244-1.305 2.541-1.495 3.449-.44 2.05-.31 4.715.306 5.448.87-.417 2.063-2.733 2.508-4.846.171-.802.524-3.277.038-3.755-.182-.186-.369-.124-.545.511l-.84 3.283c-.044.128-.073.32-.197.29-.12-.025-.071-.21-.057-.348zm65.042-.693c-.248-.09-.391.047-.296.692l.578 3.34c.014.138.063.324-.057.35-.125.028-.158-.163-.201-.292l-.841-3.283c-.176-.634-.357-.697-.549-.51-.478.477-.13 2.953.043 3.753.454 2.113 1.643 4.43 2.513 4.846.62-.731.745-3.397.306-5.447-.196-.908-.86-3.205-1.496-3.449zm-9.358 3.468c-.149-.348-.263-.371-.377-.248-.287.32.32 2.332.625 3.025 1.49 3.41 3.253 3.53 1.706-.587-.191-.498-.679-1.606-1.032-1.715-.153-.05-.244.057-.153.42l.54 1.81c.014.082.047.182-.024.206-.082.023-.11-.077-.14-.153zm-46.25-.249c-.109-.123-.233-.1-.376.248l-1.142 2.758c-.033.077-.057.176-.139.154-.076-.025-.033-.125-.023-.206l.544-1.811c.086-.363 0-.468-.163-.42-.348.11-.836 1.218-1.022 1.715-1.552 4.12.205 3.999 1.706.588.3-.693.908-2.705.616-3.026zm23.926-1.842c-.335-.173-.593-.053-.66.702l-.205 2.938c-.024.161-.014.387-.206.387-.185 0-.177-.225-.196-.387l-.21-2.938c-.062-.755-.32-.875-.659-.702-.879.425-1.137 2.096-1.137 2.66 0 1.578 1.041 3.335 2.202 4.009 1.166-.674 2.213-2.432 2.213-4.008 0-.565-.268-2.236-1.142-2.661zm-36.455-1.71c.076-.66-.068-.789-.306-.684-.621.267-1.228 2.613-1.395 3.54-.377 2.094-.191 4.783.444 5.5.84-.445 1.959-2.838 2.36-4.988.143-.822.43-3.335-.058-3.808-.19-.182-.372-.104-.53.535l-.75 3.354c-.038.134-.066.33-.186.306-.12-.02-.076-.21-.067-.35zm71.243-.685c-.24-.105-.388.024-.306.684l.482 3.405c.015.14.058.331-.066.35-.12.024-.15-.171-.187-.306l-.745-3.353c-.158-.64-.344-.717-.53-.535-.488.472-.2 2.985-.053 3.808.391 2.149 1.515 4.543 2.355 4.986.63-.716.822-3.406.44-5.5-.172-.926-.764-3.272-1.39-3.539zm-40.97 3.073c-.058-.736-.32-.837-.621-.694-.841.407-1.085 2.055-1.085 2.605 0 1.538.99 3.248 2.103 3.907 1.103-.659 1.924-2.112 1.924-3.654 0-.545-.086-1.82-.917-2.236-.324-.163-.568-.052-.626.688l-.224 1.858c-.019.154-.01.373-.191.373s-.172-.22-.196-.373zm11.012-.694c-.306-.143-.565-.042-.626.694l-.168 2.474c-.019.154-.01.373-.186.373-.186 0-.177-.22-.196-.373l-.22-1.858c-.066-.74-.305-.851-.63-.688-.832.415-.918 1.691-.918 2.236 0 1.542.827 2.995 1.93 3.654 1.104-.659 2.093-2.368 2.093-3.907 0-.55-.239-2.198-1.08-2.605zm-43.861-4.801c-.272-.018-.415.272-.43.985l-.324 4.438c-.005.191-.077.296-.206.291-.124-.009-.167-.138-.171-.286l.057-3.502c-.005-.688-.168-.807-.402-.669-.606.359-.736 3.182-.678 4.204.115 2.15.22 3.899-.383 5.504 0 0 2.944-1.64 3.33-7.811.048-.87-.08-3.106-.793-3.154zm76.088 0c-.712.048-.841 2.284-.788 3.154.377 6.172 3.32 7.81 3.32 7.81-.603-1.604-.492-3.354-.378-5.503.053-1.022-.071-3.845-.674-4.204-.238-.138-.405-.02-.41.669l.062 3.502c-.01.148-.048.277-.172.282-.124.009-.196-.096-.21-.287l-.326-4.438c-.013-.713-.152-1.003-.424-.985zm-27.65 4.205c-.264-.173-.503-.106-.641.596l-.368 1.596c-.038.149-.053.358-.215.34-.162-.019-.13-.23-.13-.382l-.051-1.047c-.038-.693-.173-.85-.478-.726-.793.31-.955 1.615-1.018 2.14-.181 1.487.325 2.891 1.233 3.64 1.06-.51 2.02-2.068 2.197-3.554.067-.525.172-2.121-.53-2.603zm-20.147.596c-.139-.702-.382-.769-.64-.596-.698.482-.601 2.078-.535 2.603.187 1.486 1.137 3.044 2.202 3.554.912-.749 1.42-2.153 1.238-3.64-.067-.525-.23-1.83-1.023-2.14-.305-.123-.44.033-.477.726l-.058 1.047c0 .153.039.363-.124.382-.162.018-.182-.191-.215-.34zm-2.446-.596c-.55.053-.893 1.184-.769 2.532.124 1.347.669 2.398 1.213 2.346.292-.025.517-.349.655-.846a7.104 7.104 0 01-.296-1.49 6.418 6.418 0 01.052-1.706c-.234-.535-.544-.86-.855-.836zm24.393 0c-.306-.024-.616.3-.85.836.085.491.104 1.08.052 1.706a7.151 7.151 0 01-.295 1.49c.137.496.367.821.649.846.549.052 1.089-1 1.218-2.346.12-1.348-.229-2.48-.774-2.532zm3.09-.578c-.19-.077-.324 0-.32.397l.11 2.259c-.004.081.01.2-.09.21-.105.005-.11-.11-.134-.187l-.296-2.082c-.077-.392-.215-.435-.392-.335-.45.267-.487 1.563-.44 2.055.125 1.294.703 2.77 1.453 2.708.755-.07 1.051-1.676.937-2.933-.058-.558-.335-1.92-.827-2.092zm-30.249.396c0-.397-.128-.474-.324-.397-.488.172-.77 1.534-.818 2.092-.119 1.258.182 2.863.932 2.934.755.061 1.333-1.414 1.448-2.708.052-.492.014-1.788-.435-2.055-.177-.101-.32-.058-.392.334l-.3 2.083c-.02.077-.024.191-.125.186-.105-.01-.09-.128-.1-.21zm32.94-1.266c-.206-.052-.335.038-.297.453l.316 2.304c.005.086.033.205-.072.225-.105.019-.124-.101-.153-.182l-.525-2.132c-.11-.4-.263-.434-.435-.31-.449.32-.316 1.85-.22 2.36.248 1.333.965 2.834 1.749 2.666.788-.163.955-1.835.712-3.129-.11-.578-.54-2.116-1.075-2.255zm-35.653.453c.038-.415-.09-.505-.296-.453-.535.139-.97 1.677-1.08 2.255-.239 1.294-.072 2.966.712 3.129.783.168 1.5-1.333 1.748-2.666.1-.51.234-2.04-.215-2.36-.172-.124-.324-.09-.434.31l-.526 2.132c-.028.081-.048.2-.158.182-.067-.014-.076-.07-.075-.133l.004-.092zm38.338-1.437c-.225-.053-.36.048-.292.487l.42 2.38c.01.09.043.21-.062.238-.114.03-.144-.1-.172-.186l-.65-2.184c-.138-.414-.305-.448-.482-.31-.454.364-.258 1.845-.129 2.384.334 1.4 1.185 2.743 1.93 2.557.74-.187.975-1.807.65-3.168-.14-.607-.646-2.078-1.213-2.198zm-41.032.487c.067-.439-.068-.54-.287-.487-.573.12-1.075 1.59-1.223 2.198-.32 1.361-.081 2.98.664 3.168.736.186 1.59-1.157 1.925-2.557.124-.54.325-2.02-.133-2.384-.177-.138-.345-.104-.478.31l-.65 2.184c-.033.086-.057.215-.172.186-.11-.028-.072-.148-.067-.238zm43.821-1.653c-.22-.057-.353.053-.272.54l.473 2.45c.01.1.048.245-.058.274-.114.023-.143-.12-.176-.215l-.664-2.237c-.149-.468-.32-.506-.488-.354-.449.393-.185 2.17-.043 2.767.382 1.567 1.295 2.728 2.074 2.982.573-.583.864-2.08.496-3.604-.162-.673-.764-2.46-1.342-2.603zm-46.626.54c.077-.487-.053-.598-.277-.54-.573.143-1.175 1.93-1.337 2.603-.373 1.524-.076 3.02.492 3.603.783-.253 1.695-1.414 2.073-2.981.143-.597.41-2.374-.034-2.767-.176-.153-.339-.115-.496.353l-.66 2.237c-.038.096-.062.239-.176.215-.11-.03-.067-.173-.058-.273zm-2.947-1.822l-.058.006c-.606.091-1.256 1.654-1.437 2.285-.421 1.413-.43 3.664.162 4.27.821-.186 2.087-2.025 2.522-3.477.162-.559.44-2.146-.019-2.552-.181-.162-.354-.138-.525.296l-.837 2.389c-.037.091-.066.225-.186.186-.115-.028-.071-.163-.052-.257l.654-2.614c.091-.448-.043-.564-.282-.526zm52.3.006c-.233-.038-.372.078-.276.526l.66 2.614c.009.094.056.229-.062.257-.116.04-.144-.095-.192-.186l-.826-2.389c-.173-.434-.35-.458-.526-.296-.458.406-.182 1.993-.014 2.552.425 1.452 1.691 3.291 2.517 3.478.592-.607.579-2.858.162-4.271-.18-.631-.835-2.194-1.442-2.285zm-22.959.182c-.281-.133-.482-.01-.482.689v2.584c-.01.148.014.349-.138.358-.158.014-.162-.19-.187-.339l-.339-2.556c-.095-.692-.31-.783-.574-.617-.682.445-.782 1.998-.75 2.514.101 1.452 1.062 3.005 2.046 3.554.893-.684 1.629-2.355 1.524-3.807-.04-.517-.36-2.036-1.1-2.38zm-5.952.689c0-.698-.2-.822-.487-.69-.74.345-1.06 1.864-1.094 2.38-.105 1.453.626 3.124 1.524 3.808.984-.55 1.944-2.102 2.044-3.554.038-.516-.071-2.069-.75-2.514-.263-.166-.478-.075-.577.617l-.33 2.556c-.034.149-.038.353-.191.34-.149-.01-.13-.211-.139-.36zm9.908-1.171c-.281-.1-.468.043-.44.74l.087 2.126c0 .148.028.354-.12.378-.148.028-.162-.177-.2-.32l-.407-2.074c-.119-.683-.334-.755-.582-.555-.64.517-.674 2.089-.612 2.605.162 1.448 1.08 2.489 2.06 2.942.835-.774 1.547-2.101 1.385-3.554-.063-.516-.44-2.016-1.17-2.288zm-13.91.74c.032-.697-.16-.84-.441-.74-.726.272-1.108 1.772-1.16 2.288-.168 1.453.544 2.78 1.38 3.554.979-.453 1.901-1.494 2.06-2.942.06-.516.023-2.088-.617-2.605-.244-.2-.459-.128-.583.555l-.406 2.073c-.033.144-.048.35-.196.32-.148-.023-.114-.229-.12-.377zm-22.077-1.875l-.058.002c-.615.058-1.213 1.171-1.447 1.797-.525 1.41-.697 3.697-.148 4.348.836-.14 2.236-1.926 2.775-3.378.206-.56.416-1.744-.014-2.188-.162-.168-.344-.158-.544.272l-1.013 2.484c-.047.086-.086.22-.205.177-.11-.043-.058-.167-.034-.262l.87-2.696c.124-.453 0-.577-.24-.554zm57.685.002c-.238-.023-.367.1-.243.554l.879 2.696c.019.095.072.22-.038.262-.115.043-.158-.09-.206-.177l-1.012-2.484c-.202-.43-.383-.44-.55-.272-.425.444-.215 1.629-.005 2.188.53 1.452 1.935 3.239 2.771 3.378.55-.65.373-2.939-.148-4.348-.23-.626-.836-1.74-1.448-1.797zm-17.747.511c-.249-.128-.426-.033-.454.589l-.1 1.127c-.015.129 0 .31-.139.315-.138.005-.138-.177-.157-.306l-.191-1.117c-.067-.617-.254-.708-.488-.565-.621.369-.768 1.735-.76 2.194.038 1.285.827 2.694 1.682 3.215.812-.568 1.52-2.016 1.486-3.311-.014-.454-.24-1.81-.879-2.141zm-21.794.589c-.024-.622-.21-.717-.454-.589-.64.33-.865 1.687-.879 2.14-.033 1.296.669 2.744 1.49 3.312.851-.52 1.64-1.93 1.673-3.215.014-.459-.134-1.825-.755-2.194-.239-.143-.43-.052-.492.565l-.191 1.117c-.02.13-.014.311-.153.306-.139-.005-.124-.186-.139-.315zm22.764-.259c.496 1.218.74 2.934-.535 4.888.167-.086 1.09-.282 1.552-.922.554-.765.674-1.362.464-2.451-.167-.837-1.042-1.467-1.48-1.515zm-24.192 0c-.44.048-1.31.678-1.476 1.515-.215 1.089-.091 1.686.463 2.45.459.64 1.39.837 1.557.923-1.28-1.954-1.036-3.67-.544-4.888zm27.717-.23c-.186-.075-.31.025-.291.512l.048 1.505c0 .105.024.244-.082.264-.095.013-.105-.13-.128-.226l-.259-1.471c-.085-.473-.224-.525-.386-.392-.426.358-.45 1.452-.411 1.811.105 1.008.76 2.13 1.41 2.455.553-.54.973-1.844.869-2.856-.039-.359-.292-1.405-.77-1.601zm-30.946.512c.019-.487-.106-.587-.292-.511-.483.196-.731 1.242-.77 1.6-.104 1.013.316 2.317.865 2.857.65-.325 1.31-1.447 1.41-2.455.043-.359.019-1.453-.406-1.81-.162-.134-.306-.082-.387.391l-.258 1.471c-.025.096-.038.239-.134.226-.1-.02-.081-.159-.081-.264zm47.041-2.766c-.253-.028-.392.11-.253.606l.898 2.853c.029.1.081.243-.038.286-.124.048-.167-.095-.22-.195l-1.047-2.575c-.224-.47-.415-.483-.592-.297-.458.483-.291 1.563-.071 2.17.587 1.59 2.111 3.549 3.014 3.702.583-.707.378-3.201-.186-4.744-.254-.683-.84-1.739-1.505-1.806zm-63.37-.003l-.063.003c-.659.067-1.246 1.123-1.5 1.806-.563 1.543-.774 4.037-.186 4.744.903-.153 2.422-2.112 3.01-3.702.22-.607.392-1.687-.067-2.17-.177-.186-.368-.172-.593.297l-1.045 2.575c-.058.1-.096.243-.226.195-.118-.043-.057-.186-.033-.286l.899-2.853c.128-.496 0-.634-.259-.606zm13.682 2.057c.067-.487-.062-.602-.263-.535-.53.143-.894 1.166-.96 1.524-.206 1 .176 2.112.716 2.7.722-.268 1.476-1.085 1.682-2.083.071-.358.143-1.452-.277-1.85-.167-.148-.32-.11-.454.36l-.349 1.093c-.028.1-.048.243-.157.215-.101-.024-.062-.167-.058-.267zm36.216-.535c-.21-.067-.334.048-.273.535l.12 1.157c.01.1.043.243-.057.267-.105.028-.124-.115-.158-.215l-.348-1.094c-.135-.468-.282-.507-.45-.358-.42.397-.348 1.49-.277 1.849.206.998.955 1.815 1.672 2.082.55-.587.927-1.7.726-2.7-.071-.357-.43-1.38-.955-1.523zm16.61-3.496c-.272-.049-.43.109-.314.615l.816 3.206c.014.115.072.268-.058.301-.138.043-.166-.115-.22-.22l-.931-2.804c-.19-.506-.396-.536-.592-.354-.516.469-.344 1.907-.153 2.557.493 1.71 1.935 3.874 2.866 4.103.67-.693.641-3.32.163-4.978-.215-.736-.893-2.308-1.577-2.426zm-69.636-.008l-.064.008c-.692.118-1.37 1.69-1.58 2.426-.479 1.658-.502 4.285.157 4.978.936-.229 2.379-2.393 2.871-4.103.187-.65.358-2.088-.158-2.557-.2-.182-.397-.152-.592.354l-.927 2.805c-.047.104-.086.262-.22.22-.129-.034-.076-.187-.057-.302l.817-3.206c.11-.506-.048-.664-.31-.615zm14.239 2.415l-.052.005c-.545.07-1.037 1.042-1.151 1.385-.34.96-.115 2.145.348 2.8.745-.162 1.61-.908 1.945-1.873.114-.344.334-1.42-.03-1.863-.142-.172-.3-.158-.496.291l-.463.979c-.043.091-.086.23-.187.192-.095-.043-.043-.177-.019-.277l.248-1.066c.125-.473.02-.601-.195-.568zm41.142.005c-.215-.033-.32.095-.196.568l.249 1.066c.02.1.076.234-.03.277-.095.038-.137-.101-.18-.192l-.464-.979c-.19-.449-.349-.463-.492-.291-.363.444-.148 1.519-.029 1.863.335.965 1.195 1.71 1.945 1.873.464-.655.683-1.84.353-2.8-.119-.343-.611-1.314-1.156-1.385zm17.623-4.768c-.262-.081-.424.053-.334.659l.612 3.67c.014.128-.01.248-.144.277-.124.033-.224-.049-.258-.215l-.692-2.934c-.11-.626-.34-.808-.545-.621-.54.473-.344 2.288-.172 3.039.955 4.15 3.813 4.882 3.813 4.882-.402-1.353-.674-3.015-.99-4.934-.143-.9-.601-3.617-1.29-3.823zm-76.106.659c.086-.606-.071-.74-.334-.659-.693.206-1.142 2.924-1.29 3.823-.32 1.92-.588 3.581-.99 4.934 0 0 2.857-.731 3.808-4.882.177-.751.368-2.566-.167-3.04-.205-.186-.44-.004-.544.622l-.698 2.934c-.029.166-.12.248-.258.215-.133-.03-.148-.149-.138-.278zm38.824.913c-.295-.177-.52-.053-.577.745l-.182 3c-.024.168-.01.402-.181.402-.163 0-.158-.234-.177-.402l-.181-3c-.053-.798-.282-.922-.579-.745-.774.448-1.003 2.212-1.003 2.804 0 1.663.917 3.507 1.94 4.219 1.027-.712 1.95-2.556 1.95-4.22 0-.591-.24-2.355-1.01-2.803zm3.641-.082c-.273-.105-.449.04-.42.736l.147 2.867c0 .148.025.353-.113.377-.144.029-.159-.177-.187-.32l-.45-2.81c-.128-.687-.333-.759-.567-.563-.607.511-.636 2.083-.579 2.599.162 1.448 1.123 2.915 2.06 3.373.797-.775 1.399-2.523 1.236-3.97-.061-.511-.43-2.016-1.127-2.289zm-8.738.736c.03-.697-.157-.841-.42-.736-.697.273-1.07 1.778-1.127 2.288-.158 1.448.434 3.196 1.233 3.971.94-.458 1.896-1.925 2.058-3.373.062-.516.038-2.088-.578-2.6-.234-.195-.435-.123-.559.565L96 91.237c-.038.143-.053.349-.196.32-.138-.024-.11-.229-.11-.377zm-18.775.338l-.056.001c-.66.053-1.338 1.195-1.51 1.605-.492 1.152-.359 2.647.124 3.488.912-.143 2.025-1.018 2.518-2.173.172-.407.535-1.71.143-2.28-.148-.224-.344-.215-.611.315l-.827 1.573c-.067.105-.129.272-.248.215-.11-.057-.034-.215 0-.34l.587-1.691c.191-.563.077-.731-.176-.712zm45.92.001c-.254-.02-.368.149-.172.712l.583 1.691c.038.125.114.283 0 .34-.115.057-.177-.11-.244-.215l-.822-1.573c-.277-.53-.463-.54-.62-.315-.387.57-.025 1.873.148 2.28.492 1.155 1.604 2.03 2.508 2.173.487-.84.626-2.336.133-3.488-.177-.41-.855-1.552-1.514-1.605zm-15.12-1.935c-.244-.09-.397.048-.344.708l.363 2.713c.005.14.043.33-.081.358-.124.028-.149-.167-.182-.296l-.492-2.154c-.134-.641-.324-.703-.516-.507-.516.497-.458 1.978-.392 2.46.21 1.362 1.119 2.719 1.964 3.121.67-.75 1.108-2.418.898-3.78-.076-.477-.597-2.383-1.218-2.623zm-15.393.708c.058-.66-.095-.799-.334-.708-.625.24-1.146 2.146-1.228 2.623-.2 1.362.24 3.03.9 3.78.844-.402 1.751-1.759 1.962-3.12.076-.483.124-1.964-.382-2.46-.2-.197-.387-.135-.526.506L92.38 90.2c-.033.13-.062.324-.181.296-.13-.029-.091-.219-.082-.358zm31.684-3.69c-.215-.065-.302.073-.11.684l1.863 5.25c.033.13.105.307.01.34-.092.038-.149-.148-.211-.262l-2.021-5.098c-.258-.587-.415-.636-.535-.44-.296.497.502 3.01.784 3.76.74 1.973 2.16 4.237 2.919 4.558.367-.745-.053-3.45-.775-5.366-.32-.845-1.371-3.243-1.924-3.425zm-48.203.684c.196-.611.105-.75-.115-.683-.55.182-1.605 2.58-1.925 3.425-.716 1.916-1.142 4.62-.774 5.366.77-.32 2.183-2.585 2.924-4.558.277-.75 1.074-3.263.783-3.76-.12-.196-.277-.147-.53.44l-2.03 5.098c-.058.114-.12.3-.21.262-.096-.033-.02-.21.014-.34zm34.628 1.05l-.074.002c-.163.028-.263.12-.062 1.031l.377 1.95c.024.143.071.34-.038.372-.106.043-.148-.158-.192-.29l-.463-1.467c-.19-.65-.368-.703-.53-.493-.42.54-.225 2.054-.1 2.546.329 1.381 1.299 2.714 2.111 3.078.535-.808.626-2.418.296-3.794-.115-.492-.783-3.049-1.4-2.933zm-21.09.002c-.62-.116-1.285 2.441-1.4 2.933-.333 1.376-.243 2.986.293 3.794.816-.364 1.79-1.697 2.12-3.078.115-.492.31-2.006-.105-2.546-.167-.21-.334-.157-.53.493l-.459 1.467c-.053.132-.09.333-.2.29-.11-.033-.058-.229-.039-.373l.378-1.949c.205-.912.1-1.003-.057-1.031zM74.65 74.189l-.279.002c-1.634.033-3.105.602-4.568 1.247-1.156.511-2.293 1.07-3.573 1.252-.248.038-.654.066-.65.405 0 .402.554.502 1.061.502.774.005 2.088-.124 3.043-.42-.239.344-.607 1.199-.626 1.404-.057.593.177.941.77.994.573.048 1.213-.392 1.695-.678.426-.254 1.152-.684 1.323-.88-.41.554-.811 1.109-1.021 1.754-.1.3-.044.611.119.779.157.167.54.267.812.215.774-.157 1.71-.965 2.436-1.72-.353.573-.712 1.122-.893 1.705-.129.412-.153.836.115 1.118.286.316.745.335 1.108.22.71-.224 1.802-1.275 2.014-1.484l.036-.035c-.22.224-.86 1.18-1.138 1.801-.33.764.24 1.443 1.066 1.318a3.535 3.535 0 001.223-.41c-.096.19-.922 1.538-1.147 2.045-.2.459-.373.97-.396 1.47-.053.837.387 1.08 1.142.694.224-.12.444-.254.678-.392-.052.597-.158 1.133-.139 1.662.02.76.407 1.023 1.137.832.368-.1.722-.254 1.094-.382-.014.257-.033.491-.033.726.005.798.483 1.151 1.242.894.387-.134.73-.374 1.113-.57.024.135.048.297.071.459.173.946.832 1.29 1.692.85.114-.062.717-.492.907-.62.11.277.66.941 1.673 1.084-.497-1.219-.482-2.595-.182-3.74.09-.374-.052-.536-.435-.469-.21.038-.425.134-.645.167-.372.058-.75.149-1.113.1-1.691-.233-3.1-1.03-4.284-2.245-.698-.717-.918-1.51-.388-2.427.067-.119.115-.253.167-.382 1.104-2.694.564-5.36-1.461-7.243-1.434-1.333-3.182-1.634-5.045-1.6zm50.99.002c-1.873-.034-3.611.267-5.05 1.6-2.02 1.883-2.57 4.549-1.466 7.243.057.129.105.263.172.382.53.917.31 1.71-.387 2.427-1.18 1.214-2.594 2.012-4.29 2.245-.358.049-.74-.042-1.113-.1-.215-.033-.425-.129-.645-.167-.377-.067-.525.095-.425.468.296 1.146.306 2.522-.186 3.741 1.017-.143 1.562-.807 1.671-1.084.187.128.79.558.908.62.86.44 1.52.096 1.682-.85.028-.162.057-.324.076-.459.388.196.73.436 1.118.57.764.257 1.232-.096 1.238-.894.005-.235-.02-.469-.03-.726.374.128.722.281 1.09.382.736.191 1.123-.072 1.147-.832.014-.53-.091-1.065-.153-1.662.244.138.459.273.688.392.75.387 1.199.143 1.141-.693-.028-.501-.191-1.012-.396-1.47-.23-.508-1.046-1.855-1.147-2.047.397.215.75.34 1.224.411.82.125 1.394-.554 1.055-1.318-.272-.621-.908-1.577-1.132-1.801 0 0 1.271 1.27 2.054 1.519.363.115.812.096 1.108-.22.258-.282.235-.706.115-1.118-.182-.583-.545-1.132-.898-1.705.731.755 1.662 1.563 2.441 1.72.273.052.655-.048.817-.215.158-.168.21-.478.115-.779-.21-.645-.612-1.2-1.023-1.754.168.196.899.626 1.323.88.483.286 1.123.726 1.696.678.593-.053.822-.401.77-.994-.015-.205-.387-1.06-.622-1.404.946.296 2.26.425 3.035.42.51 0 1.06-.1 1.06-.502.004-.339-.397-.367-.645-.405-1.276-.182-2.417-.74-3.574-1.252-1.466-.645-2.933-1.214-4.561-1.247zm.717 8.399c-.234-.034-.32.12-.067.683l2.34 4.754c.058.124.145.281.048.329-.095.053-.171-.114-.243-.229l-2.566-4.61c-.32-.54-.492-.56-.597-.35-.267.536.64 2.519.999 3.216.946 1.82 2.795 4.304 3.625 4.496.32-.784-.53-3.86-1.447-5.629-.405-.783-1.5-2.575-2.092-2.66zM73.7 82.585l-.048.005c-.592.085-1.691 1.877-2.097 2.66-.917 1.768-1.768 4.845-1.448 5.629.826-.192 2.68-2.676 3.621-4.496.364-.697 1.271-2.68 1-3.215-.106-.21-.278-.192-.593.348l-2.565 4.611c-.077.115-.154.282-.244.229-.096-.048-.005-.205.043-.33l2.336-4.753c.257-.564.181-.717-.053-.683zm55.33-1.457c-.257 0-.354.166-.081.726l2.431 4.419c.053.12.13.225.02.287-.11.066-.168-.048-.25-.158l-2.689-4.295c-.343-.515-.535-.515-.659-.286-.315.597.612 2.48 1.004 3.153 1.031 1.772 2.852 3.798 4.022 4.142.206-1.17-.535-3.893-1.543-5.614-.44-.764-1.586-2.36-2.255-2.374zm-58.058 0c-.668.014-1.82 1.61-2.259 2.374-.999 1.72-1.74 4.444-1.539 5.61v.004c1.17-.344 2.99-2.37 4.018-4.142.392-.674 1.323-2.556 1.008-3.153-.124-.23-.32-.23-.664.286l-2.69 4.295c-.076.11-.133.224-.248.158-.105-.062-.029-.167.024-.287l2.427-4.42c.277-.559.18-.725-.077-.725zm31.836 2.345c-.205-.119-.359-.038-.397.483l-.124 1.826c-.014.11-.01.267-.124.267-.115 0-.11-.158-.124-.267l-.053-1.062c-.038-.52-.182-.559-.406-.492-.535.178-.76 1.022-.76 1.405 0 1.094.64 1.978 1.338 2.442.716-.464 1.347-1.678 1.347-2.767 0-.387-.163-1.544-.697-1.835zm-5.222.483c-.033-.521-.19-.602-.396-.483-.535.291-.693 1.448-.693 1.835 0 1.089.63 2.303 1.338 2.767.706-.464 1.342-1.348 1.342-2.442 0-.383-.22-1.227-.76-1.405-.224-.067-.358-.028-.397.492l-.061 1.062c-.014.11-.01.267-.124.267-.115 0-.11-.158-.12-.267zm8.083-1.443c-.243-.086-.392.029-.344.616l.187 2.017c.01.129.043.3-.077.32-.129.019-.148-.158-.182-.272l-.453-1.978c-.139-.574-.315-.636-.516-.474-.512.42-.468 1.735-.401 2.17.195 1.212 1.094 2.456 1.93 2.847.663-.635 1.122-2.098.922-3.31-.072-.436-.45-1.692-1.066-1.936zm-11.002.616c.058-.587-.09-.702-.334-.616-.616.244-.999 1.5-1.075 1.935-.191 1.213.263 2.676.927 3.311.84-.391 1.734-1.635 1.935-2.848.066-.434.105-1.748-.407-2.169-.2-.162-.377-.1-.51.474l-.455 1.978c-.033.114-.057.29-.176.272-.124-.02-.091-.191-.086-.32zm37.325-3.798c-.273-.014-.378.153-.115.74l2.164 4.267c.048.13.125.239.01.301-.115.063-.177-.057-.254-.167l-2.35-4.066c-.334-.55-.54-.554-.678-.32-.35.597.487 2.504.86 3.215.994 1.873 2.632 3.674 3.831 4.08.263-1.194-.224-3.664-1.19-5.48-.43-.802-1.585-2.527-2.278-2.57zm-63.926 0h-.055c-.694.043-1.859 1.768-2.28 2.57-.964 1.816-1.452 4.286-1.19 5.48 1.2-.406 2.839-2.207 3.828-4.08.381-.711 1.213-2.618.86-3.214-.139-.235-.335-.23-.674.319l-2.35 4.066c-.082.11-.139.23-.249.167-.115-.062-.043-.172.005-.3l2.164-4.267c.263-.588.153-.755-.114-.74zm23.916 3.192c.096-.493-.009-.602-.205-.54-.507.158-.922 1.2-1.017 1.558-.273 1.008-.048 2.269.405 2.852.689-.277 1.424-.96 1.692-1.974.095-.357.124-1.184-.268-1.466-.167-.115-.286-.106-.45.368l-.3.912c-.038.1-.072.244-.162.22-.096-.024-.053-.168-.038-.272zm16.243-.54c-.196-.062-.3.047-.2.54l.334 1.658c.019.104.062.248-.033.272-.091.024-.125-.12-.163-.22l-.3-.912c-.159-.474-.283-.483-.445-.368-.396.282-.368 1.109-.272 1.466.262 1.013.998 1.697 1.69 1.974.459-.583.67-1.844.402-2.852-.096-.358-.511-1.4-1.013-1.558zm26.562-3.832c-.24-.005-.325.153-.077.664l1.892 3.54c.048.11.12.211.015.268-.091.063-.149-.043-.215-.143l-2.456-3.784c-.316-.483-.492-.478-.602-.263-.287.55 1.003 2.9 1.362 3.526 1.62 2.766 3.769 3.24 3.769 3.24-.349-1.692-.722-2.977-1.314-4.153-.363-.73-1.773-2.885-2.374-2.895zm-69.567 0c-.611.01-2.016 2.164-2.379 2.895-.597 1.176-.97 2.46-1.313 4.152 0 0 2.149-.473 3.764-3.239.363-.626 1.648-2.976 1.366-3.526-.11-.215-.282-.22-.602.263l-2.45 3.784c-.072.1-.13.206-.23.143-.095-.057-.024-.157.024-.267l1.892-3.541c.248-.51.162-.669-.072-.664zm33.518 3.206c-.846-.477-1.53.544-1.013 1.233.54.74 1.514.64 1.891 1.92 0-.702-.061-1.557-.186-2.068-.115-.426-.415-.922-.692-1.085zm3.577 1.233c.507-.689-.17-1.71-1.012-1.233-.282.163-.587.66-.693 1.085-.13.51-.19 1.366-.19 2.068.381-1.28 1.356-1.18 1.895-1.92zm-6.282-4.979c-.215-.086-.348.034-.276.602l.219 1.773c.01.124.053.287-.062.305-.11.024-.134-.147-.167-.262l-.454-1.725c-.143-.554-.31-.616-.483-.453-.439.415-.349 1.705-.267 2.125.23 1.186 1.08 2.394 1.844 2.766.569-.63.917-2.064.683-3.254-.081-.42-.468-1.648-1.037-1.877zm8.208.602c.066-.568-.058-.688-.277-.602-.56.23-.951 1.458-1.037 1.877-.23 1.19.115 2.624.683 3.254.765-.372 1.62-1.58 1.844-2.766.082-.42.168-1.71-.267-2.125-.172-.163-.33-.101-.483.453l-.449 1.725c-.033.115-.061.286-.172.262-.104-.018-.071-.181-.057-.305zm3.21-.13c-.177-.08-.305 0-.291.446l.024 1.362c-.005.09.014.219-.082.234-.09.008-.1-.124-.12-.215l-.243-1.343c-.076-.43-.215-.487-.377-.377-.42.3-.464 1.285-.43 1.61.091.917.726 1.886 1.357 2.22.559-.453.993-1.523.902-2.445-.028-.325-.262-1.285-.74-1.491zm-14.609.446c.015-.445-.114-.526-.3-.445-.473.206-.703 1.166-.736 1.491-.091.922.343 1.992.902 2.446.636-.335 1.266-1.304 1.362-2.221.029-.325-.005-1.31-.43-1.61-.167-.11-.306-.053-.382.377l-.234 1.343c-.02.09-.029.223-.13.215-.1-.015-.075-.144-.075-.234zm5.619-1.228c-.173-.052-.273.034-.215.415l.157 1.185c.01.077.033.191-.043.211-.09.014-.11-.095-.133-.172l-.345-1.142c-.109-.372-.234-.411-.367-.297-.34.301-.278 1.166-.215 1.448.167.788.816 1.572 1.409 1.797.44-.45.711-1.43.535-2.222-.058-.282-.353-1.094-.783-1.223zm3.3.415c.049-.381-.048-.467-.22-.415-.43.13-.725.941-.787 1.223-.173.793.1 1.772.544 2.222.583-.225 1.228-1.009 1.4-1.797.057-.282.129-1.147-.215-1.448-.129-.114-.258-.075-.368.297l-.34 1.142c-.028.077-.047.186-.128.172-.086-.02-.052-.134-.043-.21zm-9.544-4.056c-.182-.047-.297.044-.192.516l.321 1.467c.014.096.062.234-.029.259-.091.023-.124-.116-.168-.211l-.262-.746c-.167-.453-.287-.463-.444-.353-.383.263-.201 1.108-.082 1.453.344.989 1.061 1.356 1.553 1.543.454-.77.415-1.558.258-2.332-.076-.358-.449-1.466-.955-1.596zm15.76.516c.105-.472-.005-.563-.191-.516-.507.13-.89 1.238-.956 1.596-.162.774-.196 1.563.253 2.332.497-.187 1.214-.554 1.563-1.543.114-.345.29-1.19-.086-1.453-.158-.11-.278-.1-.445.353l-.267.746c-.034.095-.076.234-.167.21-.086-.024-.048-.162-.025-.258zm-2.217-.979c.12-.482.024-.597-.172-.545-.501.143-.96 1.161-1.07 1.515-.306 1.004-.162 2.264.263 2.867.683-.254 1.528-1.215 1.839-2.208.11-.358.315-1.453-.014-1.858-.13-.149-.278-.116-.454.353l-.559 1.434c-.038.095-.081.243-.172.215-.09-.03-.039-.172-.019-.273zm-11.346-.545c-.191-.052-.292.063-.172.545l.358 1.5c.02.1.067.244-.023.273-.091.028-.13-.12-.168-.215l-.554-1.434c-.186-.469-.33-.502-.458-.353-.33.405-.13 1.5-.015 1.858.311.993 1.157 1.954 1.84 2.208.42-.603.573-1.863.258-2.867-.11-.354-.564-1.372-1.066-1.515zm1.7-.133c-.205-.454-.357-.464-.477-.315-.344.4.072 1.524.19 1.877.37 1.051 1.214 2.088 2.15 2.738.297-.445.297-2.213-.142-3.149-.163-.334-.493-1.157-.975-1.151-.2 0-.296.077-.148.554l.244.774c.024.1.081.234-.01.268-.09.038-.139-.102-.186-.196zm8.251-.315c-.124-.15-.267-.139-.482.315l-.64 1.4c-.049.094-.091.234-.187.196-.09-.034-.033-.168-.01-.268l.244-.774c.143-.477.048-.554-.152-.554-.479-.006-.808.817-.97 1.151-.445.936-.445 2.704-.149 3.149.937-.65 1.787-1.687 2.15-2.738.124-.353.54-1.477.196-1.877zm4.992-.502c-.129-.057-.2.004-.186.339l.053 1.018c0 .07.014.171-.044.18-.066.006-.076-.09-.095-.157l-.09-.53c-.068-.33-.139-.348-.268-.287-.282.149-.344.698-.306.942a1.96 1.96 0 00.922 1.462c.358-.34.626-1.156.535-1.845-.024-.248-.2-.97-.52-1.122zm-18.526.339c.014-.335-.067-.396-.186-.34-.32.153-.497.875-.53 1.123-.077.689.18 1.505.54 1.845.43-.25.845-.77.93-1.462.03-.244-.023-.793-.315-.942-.119-.061-.2-.043-.257.287l-.1.53c-.015.068-.02.163-.087.158-.062-.01-.047-.11-.047-.181zm1.605-4.78l-.081.017c-.138.047-.206.348-.048.397.082.028.254.057.254.057a.257.257 0 01.195.31.258.258 0 01-.31.2l-.1-.023s-.115-.019-.206.029a.415.415 0 00-.172.196c-.157.3-.33.578-.52.811a.284.284 0 00-.077.23c.005.128.134.263.134.263l.979 1.08c.1.086.067.148.038.177-.01.013-.081.066-.186-.016l-1.209-.878s-.124-.106-.272-.1a.423.423 0 00-.277.095 5.074 5.074 0 01-.74.449c-.12.058-.225.095-.264.21-.033.1.034.23.034.23l.057.123a.259.259 0 01-.129.35.252.252 0 01-.344-.12l-.071-.162s-.053-.168-.21-.215c-.14-.043-.23-.015-.368.01-.483.095-.855.104-1.018.114.249.048 1.705.444 1.969 1.768.75-1.166.754-2.155.754-2.155s1.142 1.438 3.392 1.414c-.12-2.16-1.571-3.157-1.571-3.157s1.49-.135 2.211-.971c-.65-.162-1.233-.459-1.557-.625-.129-.062-.224-.144-.368-.091zm15.212.017c-.15-.053-.244.029-.364.09-.334.167-.912.464-1.567.626.73.836 2.212.97 2.212.97s-1.453.999-1.567 3.158c2.068.022 3.208-1.201 3.371-1.39l.02-.024s.006.989.756 2.155c.267-1.324 1.72-1.72 1.968-1.768-.163-.01-.54-.02-1.023-.115-.133-.024-.219-.052-.363-.009-.157.047-.205.215-.205.215l-.077.162a.255.255 0 01-.348.12.256.256 0 01-.124-.35l.062-.124s.057-.129.024-.229c-.038-.115-.139-.152-.263-.21a5.077 5.077 0 01-.736-.45.409.409 0 00-.272-.095.436.436 0 00-.272.1l-1.214.88c-.105.081-.172.028-.196.015-.018-.029-.048-.091.043-.177l.984-1.08s.13-.135.13-.263a.318.318 0 00-.067-.23 4.52 4.52 0 01-.53-.811.49.49 0 00-.163-.196c-.095-.048-.21-.029-.21-.029l-.1.024a.263.263 0 01-.316-.2.267.267 0 01.206-.311s.162-.029.253-.057c.152-.049.086-.35-.052-.397zm-1.501 1.472c-.492-.106-1.223.62-1.438.892-.463.608-.832 1.267-.764 2.121.506.048 1.28.03 1.997-.673.243-.248.993-1.127.774-1.52-.091-.161-.253-.167-.535.12l-.774.76c-.077.067-.163.172-.234.114-.067-.057.028-.157.085-.238l.827-1.052c.296-.363.234-.487.062-.524zm-12.187-.01l-.1.01c-.181.037-.239.161.053.524l.831 1.052c.057.08.153.181.086.238-.072.058-.163-.047-.23-.114l-.788-.76c-.277-.287-.44-.281-.53-.12-.215.393.53 1.272.778 1.52.717.702 1.486.721 1.997.673.067-.854-.3-1.513-.764-2.121-.21-.272-.945-.998-1.433-.892zm23.786 1.915s-.463-.716-1.973-.262c-.54.166-1.276.516-2.221.625 0 0 .649.268 2.035-.157l.214-.063c1.25-.344 1.945-.143 1.945-.143zm-33.522-.262c-1.505-.454-1.968.262-1.968.262s.774-.224 2.16.206c1.375.425 2.034.157 2.034.157-.95-.11-1.685-.459-2.226-.625zM76.09 68.62c-.234.749.187 1.662 1.152 1.934 1.767.502 3.54-.354 4.38-.774.923-.458 1.549-.168 1.549-.168s-.211-.233-.722-.41c-.664-.235-.989.096-2.093.602-.96.445-2.392.774-3.482.263-.908-.42-.784-1.447-.784-1.447zm47.821 0s.13 1.026-.779 1.447c-1.09.511-2.522.182-3.482-.263-1.104-.506-1.434-.837-2.093-.602-.418.145-.635.327-.7.389l-.021.021s.62-.29 1.547.168c.841.42 2.614 1.276 4.377.774.965-.272 1.39-1.185 1.151-1.934zm-11.126-1.649c-.588-.602-1.142.081-2.026.587-.477.273-1.739.779-2.704-.472.143.497.946 2.942 3.43 3.344 1.176.186 2.69.043 3.894-1.09 1.046-.988 1.538-2.025 1.008-2.355-.468-.282-.798.196-1.123.482-.325.292-.726.459-1.361.321-.612-.13-.856-.54-1.118-.817zm-23.542.587c-.885-.506-1.444-1.19-2.021-.587-.268.277-.507.688-1.124.817-.63.138-1.026-.029-1.356-.32-.325-.287-.66-.765-1.118-.483-.54.33-.048 1.367.999 2.355 1.204 1.133 2.723 1.276 3.898 1.09 2.484-.402 3.287-2.847 3.43-3.344-.965 1.251-2.226.745-2.708.472zm-6.297-.626c.023-.697-.407-.935-.616-.763-.124.095-.105.434-.31.43-.13-.006-.13-.173-.302-.244-.353-.143-3.043.158-3.31 2.311 0 0 .87-.596 2.508-.39 1.585.19 3.454 1.427 3.454 1.427s-1.486-1.14-1.424-2.77zm34.73-.763c-.214-.172-.64.066-.616.763.062 1.63-1.428 2.771-1.428 2.771s1.872-1.236 3.463-1.428c1.63-.205 2.499.391 2.499.391-.267-2.153-2.957-2.454-3.302-2.311-.18.071-.176.238-.305.244-.21.004-.186-.335-.31-.43zm-22.328 2.575c-.277-.144-.483-.025-.459.133.029.23.94.535 1.791.053 0 0-.65.114-1.332-.186zm9.77.133c.024-.158-.187-.277-.464-.133-.673.3-1.333.186-1.333.186.85.482 1.768.177 1.796-.053zm-10.11-1.558c-.382-.166-.534.01-.52.159.028.253 1.252.549 2.197-.04 0 0-.812.187-1.676-.119zm10.506.159c.019-.149-.134-.325-.516-.159a3.346 3.346 0 01-1.64.127l-.037-.007c.946.588 2.164.292 2.193.039zm8.985-1.147c-.344 0-.62.253-.62.563 0 .316.276.569.62.569.34 0 .617-.253.617-.569 0-.31-.278-.563-.617-.563zm-28.988 0c-.339 0-.621.253-.621.563 0 .316.282.569.621.569.34 0 .617-.253.617-.569 0-.31-.277-.563-.617-.563zm5.91-.727c-3.611-1.08-4.653-1.252-6.149-.869-1.729.444-2.225 1.348-1.963 1.724.244.359.879.173 1.557-.104.464-.186 1.056-.44 1.576-.473.74-.058 1.224.033 2.313.87 1.056.816 2.24 1.07 3.02-.115 0 0 3.487.783 5.092-.803 0 0-1.835.85-5.447-.23zm23.308-.869c-1.49-.383-2.537-.21-6.144.87-3.61 1.08-5.45.229-5.45.229 1.61 1.586 5.097.803 5.097.803.779 1.184 1.963.93 3.015.114 1.089-.836 1.58-.927 2.316-.87.521.034 1.113.288 1.581.474.674.277 1.3.463 1.553.104.258-.376-.234-1.28-1.968-1.724zm-.114 1.892c.129 0 .234.1.234.22s-.105.215-.234.215c-.138 0-.244-.097-.244-.215 0-.12.106-.22.244-.22zm-29.218 0c.128 0 .24.1.24.22s-.112.215-.24.215c-.134 0-.244-.096-.244-.215 0-.12.11-.22.244-.22z"/></g></svg>